<svg xmlns="http://www.w3.org/2000/svg" viewBox="0 0 572 353.06"><defs><style>.cls-1{fill:#1976bd;stroke:#fff;stroke-width:10px;}.cls-1,.cls-2{stroke-miterlimit:10;}.cls-2{fill:#f7f8f8;stroke:#b5b5b6;stroke-width:0.5px;}</style></defs><title>アセット 2</title><g id="レイヤー_2" data-name="レイヤー 2"><g id="レイヤー_1-2" data-name="レイヤー 1"><rect class="cls-1" x="5" y="5" width="562" height="343.06" rx="100.01"/><path class="cls-2" d="M351,66.05c-17.31,16.36-34.4,53.53-47.9,82.81s-30,76.12-40.28,111.89c-1.13,3.9-5.92,18.45-7.23,22.8-6.56-17.42-14.45-40.35-20.64-57-8.31-22.32-13.83-34.31-21.89-57.44-4.85-13.94-12.25-38.65-17.44-54-3,17.62-10.84,47.63-14.7,62.93s-11.71,45-13.53,50.78c-5.76,18.12-9.68,25-16,34.84s-11,12.51-18.47,17.25S118.43,286,111,286.4a41.72,41.72,0,0,1-24.52-6.47c-5.41-3.33-6.91-7-7.5-12.6-.25-2.46.92-4.24,2.71-6a8.83,8.83,0,0,1,6.59-2.64c3.88-.13,7.41,3,10.6,5.15,5.7,3.76,10.78,10.79,18.67,9,8.49-1.93,10.08,1.3,18.39-8.93,12.53-15.43,16.93-26,25.12-53.18,9.89-32.82,21.05-82.21,27.71-119.24-7.35-.71-13.59,1.23-21.5,2.77s-18.8,4.94-26,8.94A43.09,43.09,0,0,0,125,118.35c-4,6.42-5.37,12.32-5.76,19.61-.19,3.65.55,6.72,1.43,10.48.6,2.5,2.68,6.23,4.07,8.46,1.6,2.58,3.65,6.29,3.63,8.8,0,3.18-.8,4.81-2.79,6.65s-3.93,3.08-7,2.67c-4.44-.61-7.47-1.48-10.37-6.54a33.89,33.89,0,0,1-4.14-19.16c.87-12.34,2.38-25.31,11-36.07s14.47-16.5,29.64-23c9.64-4.11,30.09-7.41,43.72-9.11,5-.63,16.59-2.58,22.34-4,1.78,6,3,12.81,4.4,18.32,5.27,20.13,5.21,23.21,12.83,46.75s24.31,60.45,32.49,87c3.59-10.1,9.45-26.81,12.88-36.73,4.45-12.91,14.18-37.59,17.9-46.46,10.94-26,28.61-61.5,41.21-78.06s11.79-14.22,22.71-18.59c13.6-5.46,15.69-2.84,24.09-3.08,6.73-.2,11.17,3,15.19,6s4.38,6.23,4.36,10.29c0,2.91-1.75,4.79-3.76,6.58s-4.52,2.21-7.18,2.06c-1.92-.1-4.9-1.84-6.26-2.44-2.82-1.26-7-4-8.89-4.92C368.59,61.84,360.55,60.68,351,66.05Z"/><path class="cls-2" d="M416.21,101.45A68.35,68.35,0,0,1,451,110.39,61,61,0,0,1,475,135.91q8.55,16.58,8.56,38.58,0,28.72-15.43,57t-37.75,42.63a89.49,89.49,0,0,1-49.5,14.36q-31.32,0-50.65-19.55t-19.33-51.5q0-30.55,15.43-59t37.9-42.71Q386.72,101.46,416.21,101.45Zm-11.16,11a55.51,55.51,0,0,0-32.62,10.47q-14.9,10.48-24.37,32.73t-9.47,51.62q0,33.65,14.82,51.92t37,18.27q16.5,0,31.25-10.86t24.29-34.18q9.56-23.31,9.55-53.6,0-31.35-14.59-48.86T405.05,112.46Z"/></g></g></svg>