<svg xmlns="http://www.w3.org/2000/svg" viewBox="0 0 572 353.06"><defs><style>.cls-1{fill:#e94825;stroke:#fff;stroke-width:10px;}.cls-1,.cls-2{stroke-miterlimit:10;}.cls-2{fill:#f7f8f8;stroke:#6a6969;stroke-width:0.5px;}</style></defs><title>アセット 1</title><g id="レイヤー_2" data-name="レイヤー 2"><g id="レイヤー_1-2" data-name="レイヤー 1"><rect class="cls-1" x="5" y="5" width="562" height="343.06" rx="100.01"/><path class="cls-2" d="M126.18,70.05a9.7,9.7,0,0,1,14.06,1.82c8.38,11.67,20.08,29.77,23.36,38.52q6.39,17,8.77,42.18c3.84-45,94.37-87.75,94.37-87.75S300.45,46,309.24,46A9.61,9.61,0,0,1,316,48.33a7.6,7.6,0,0,1,2.62,5.86A6.92,6.92,0,0,1,315.52,60q-3.06,2.25-11.91,2.87c-5.82.42-29.57,7.43-32.73,9.34-6.23,3.83-38,20.51-50.65,29.09-11,7.5-27.49,27.88-35.72,43.35s-14.49,59.2-18.79,75.94-6.61,27.64-6.93,32.71a68.75,68.75,0,0,0,11.62,1,83.48,83.48,0,0,0,19.25-2.5l-2.61,7.36a54.85,54.85,0,0,1-13.23,2q-5.87,0-15.47-1a141.52,141.52,0,0,0-14.48-1q-7.62,0-23.34,1.74l2.12-6.35q11.72-3,14.7-6.48t10-29.85c4.65-17.57,7-56.76,7-62.32a98.7,98.7,0,0,0-6.48-34.27c-3.37-9.14-15.17-27.39-23.26-38.4a9.7,9.7,0,0,1,1.62-13.22Z"/><path class="cls-2" d="M347.15,128.2h-6.6a69.61,69.61,0,0,0,1-10.09c0-3.32-1.4-5.5-4.18-6.54S324.08,110,305.87,110l-18.22.12-13.7,55H299.7q12.19,0,15-1.8t4-9h7.11q-4,15.09-7.11,33.15h-6.35q.62-5.85.62-9.1a5.69,5.69,0,0,0-1.74-3.36,5.45,5.45,0,0,0-3.25-1.37,62.76,62.76,0,0,0-10.47-.62H272c-9.4,36-19.19,58.72-23,66.33a69.41,69.41,0,0,1,20.57-3.66q15,0,36.66,4.74Q317.74,243,321.85,243a13.6,13.6,0,0,0,8.85-2.73q3.38-2.73,3.37-6.21a21.28,21.28,0,0,0-1.7-6.45,18.2,18.2,0,0,1-1-5.83,6.94,6.94,0,0,1,2.3-5.09,7.73,7.73,0,0,1,5.55-2.23,8.12,8.12,0,0,1,6.42,3,11.89,11.89,0,0,1,2.55,8q0,10.59-9.29,18.56t-24.5,8a188.68,188.68,0,0,1-20.21-1.37q-26.81-3-40.9-3a363.34,363.34,0,0,0-43.14,3l2-7q14.79-4.08,17.42-6a14.4,14.4,0,0,0,4.38-5.62q6-11.82,15.49-47.43t19.35-75.19a59.46,59.46,0,0,0-28.32,7.1A55.47,55.47,0,0,0,219.56,135a42.88,42.88,0,0,0-7.48,23.95,36.42,36.42,0,0,0,1.06,9.33,60.56,60.56,0,0,0,4.79,11.2q2.37,4.35,2.37,7.09a6.44,6.44,0,0,1-2.29,4.85,8,8,0,0,1-5.63,2.12q-4.83,0-7.68-4.86-4.22-7.11-4.21-19.32,0-26.16,19.81-47T278,101.53h42.74q22.17,0,32.77-2.86Q348.52,119.45,347.15,128.2Z"/><path class="cls-2" d="M433.75,174.05h-7.27Q428,159.35,428,151.8q0-10.77-5.79-17t-15.7-6.23q-15.36,0-26.81,11.14t-11.44,25a28.59,28.59,0,0,0,3.14,13.45q3.13,6,13.88,16.8Q405,214.27,411.1,225.2t6.14,21.28q0,15.27-9.3,29.41T380.51,299.2a83.53,83.53,0,0,1-38.27,9.17q-19.86,0-33.51-10.35t-13.64-21.83A14.89,14.89,0,0,1,298.66,266a10.64,10.64,0,0,1,8.18-4.06,9.68,9.68,0,0,1,7.84,3.78q1.95,2.24,3.92,10.07,2.23,9.53,5.45,13.79a23.86,23.86,0,0,0,8.89,7,28.14,28.14,0,0,0,12.38,2.73,50.59,50.59,0,0,0,35-13.51q15-13.51,15-29.9a34.16,34.16,0,0,0-1.89-11.13,49.55,49.55,0,0,0-6.92-12.54q-3.49-4.75-15.53-16.8-11.9-11.76-15-16.1a50.05,50.05,0,0,1-6.43-12.68,40.24,40.24,0,0,1-2.1-12.67q0-12.73,8.53-25.62a63.3,63.3,0,0,1,22.18-20.52q13.65-7.64,31-7.63a108.15,108.15,0,0,1,21.4,2.66q7.28,1.39,12.6,2.1a146.19,146.19,0,0,0-4.76,17.14Q436.69,150.12,433.75,174.05Z"/></g></g></svg>